<?xml version="1.0" encoding="UTF-8" standalone="no"?>
<!DOCTYPE svg PUBLIC "-//W3C//DTD SVG 1.1//EN"
 "http://www.w3.org/Graphics/SVG/1.1/DTD/svg11.dtd">
<!-- Generated by graphviz version 2.36.0 (20140111.2315)
 -->
<!-- Title: g Pages: 1 -->
<svg width="102pt" height="294pt"
 viewBox="0.00 0.00 102.00 294.00" xmlns="http://www.w3.org/2000/svg" xmlns:xlink="http://www.w3.org/1999/xlink">
<g id="graph0" class="graph" transform="scale(1 1) rotate(0) translate(4 290)">
<title>g</title>
<polygon fill="white" stroke="none" points="-4,4 -4,-290 98,-290 98,4 -4,4"/>
<!-- a -->
<g id="node1" class="node"><title>a</title>
<ellipse fill="none" stroke="black" cx="67" cy="-268" rx="27" ry="18"/>
<text text-anchor="middle" x="67" y="-264.3" font-family="Times,serif" font-size="14.00">a</text>
</g>
<!-- b -->
<g id="node2" class="node"><title>b</title>
<ellipse fill="none" stroke="black" cx="27" cy="-180" rx="27" ry="18"/>
<text text-anchor="middle" x="27" y="-176.3" font-family="Times,serif" font-size="14.00">b</text>
</g>
<!-- a&#45;&gt;b -->
<g id="edge1" class="edge"><title>a&#45;&gt;b</title>
<path fill="none" stroke="black" d="M59.2876,-250.418C53.5326,-238.045 45.5614,-220.907 38.9793,-206.755"/>
<polygon fill="black" stroke="black" points="42.0796,-205.122 34.6887,-197.531 35.7326,-208.074 42.0796,-205.122"/>
<text text-anchor="middle" x="57.5" y="-220.3" font-family="Times,serif" font-size="14.00">â¶</text>
</g>
<!-- c -->
<g id="node3" class="node"><title>c</title>
<ellipse fill="none" stroke="black" cx="27" cy="-92" rx="27" ry="18"/>
<text text-anchor="middle" x="27" y="-88.3" font-family="Times,serif" font-size="14.00">c</text>
</g>
<!-- b&#45;&gt;c -->
<g id="edge2" class="edge"><title>b&#45;&gt;c</title>
<path fill="none" stroke="black" d="M27,-161.597C27,-149.746 27,-133.817 27,-120.292"/>
<polygon fill="black" stroke="black" points="30.5001,-120.084 27,-110.084 23.5001,-120.084 30.5001,-120.084"/>
<text text-anchor="middle" x="33.5" y="-132.3" font-family="Times,serif" font-size="14.00">â·</text>
</g>
<!-- d -->
<g id="node4" class="node"><title>d</title>
<ellipse fill="none" stroke="black" cx="62" cy="-18" rx="27" ry="18"/>
<text text-anchor="middle" x="62" y="-14.3" font-family="Times,serif" font-size="14.00">d</text>
</g>
<!-- c&#45;&gt;d -->
<g id="edge3" class="edge"><title>c&#45;&gt;d</title>
<path fill="none" stroke="black" d="M34.942,-74.6621C39.2828,-65.7326 44.7552,-54.475 49.641,-44.4243"/>
<polygon fill="black" stroke="black" points="52.8652,-45.7971 54.0894,-35.2733 46.5696,-42.7368 52.8652,-45.7971"/>
</g>
<!-- d&#45;&gt;a -->
<g id="edge4" class="edge"><title>d&#45;&gt;a</title>
<path fill="none" stroke="black" d="M62.697,-36.1241C64.0498,-70.3103 66.9869,-149.455 68,-216 68.1186,-223.792 68.0375,-232.254 67.88,-240.004"/>
<polygon fill="black" stroke="black" points="64.3812,-239.916 67.6294,-250.001 71.379,-240.092 64.3812,-239.916"/>
</g>
</g>
</svg>
